<svg xmlns="http://www.w3.org/2000/svg" viewBox="0 0 1080 1620" width="1080" height="1620" font-family="'Didot','Bodoni MT','Playfair Display',Georgia,serif">
  <defs>
    <radialGradient id="glowC" cx="50%" cy="50%" r="50%">
      <stop offset="0%" stop-color="#8A7BB8" stop-opacity="0.22"/>
      <stop offset="100%" stop-color="#8A7BB8" stop-opacity="0"/>
    </radialGradient>
  </defs>

  <rect width="1080" height="1620" fill="#1B1530"/>
  <!-- atmosphere: constellation -->
  <g stroke="#8A7BB8" stroke-opacity="0.25" stroke-width="1">
    <line x1="860" y1="150" x2="930" y2="210"/><line x1="930" y1="210" x2="900" y2="290"/>
    <line x1="120" y1="1200" x2="180" y2="1160"/>
  </g>
  <g fill="#D9C089" fill-opacity="0.5">
    <circle cx="860" cy="150" r="3"/><circle cx="930" cy="210" r="4"/><circle cx="900" cy="290" r="2.5"/>
    <circle cx="120" cy="1200" r="3"/><circle cx="180" cy="1160" r="2.5"/>
  </g>

  <!-- header -->
  <text x="90" y="115" fill="#D9C089" font-family="'Trebuchet MS',sans-serif" font-size="22" letter-spacing="8">OPTION C</text>
  <text x="86" y="200" fill="#EDE9F2" font-size="70" font-style="italic">Wonder</text>
  <text x="90" y="246" fill="#6B6385" font-family="'Trebuchet MS',sans-serif" font-size="24">What lies behind the curiosity.</text>
  <line x1="90" y1="284" x2="990" y2="284" stroke="#2C2447" stroke-width="1.5"/>

  <!-- logo lockup: keyhole + stars -->
  <circle cx="540" cy="420" r="150" fill="url(#glowC)"/>
  <g stroke="#8A7BB8" stroke-opacity="0.5" stroke-width="1.4" fill="none">
    <line x1="470" y1="360" x2="540" y2="396"/><line x1="610" y1="368" x2="540" y2="396"/>
  </g>
  <g fill="#D9C089">
    <circle cx="540" cy="408" r="34"/>
    <path d="M 525 432 L 555 432 L 566 488 L 514 488 Z"/>
  </g>
  <circle cx="540" cy="408" r="13" fill="#1B1530"/>
  <g fill="#D9C089">
    <circle cx="470" cy="360" r="4"/><circle cx="610" cy="368" r="3.5"/><circle cx="600" cy="300" r="2.8"/>
  </g>
  <text x="540" y="572" text-anchor="middle" fill="#EDE9F2" font-size="56" letter-spacing="3">CURATED</text>
  <text x="540" y="616" text-anchor="middle" fill="#D9C089" font-family="'Trebuchet MS',sans-serif" font-size="28" letter-spacing="10">CURIOSITIES</text>

  <!-- banner -->
  <text x="90" y="700" fill="#6B6385" font-family="'Trebuchet MS',sans-serif" font-size="18" letter-spacing="3">YOUTUBE BANNER · 2560 × 1440</text>
  <rect x="90" y="718" width="900" height="506" rx="14" fill="#140F26" stroke="#2C2447"/>
  <g stroke="#8A7BB8" stroke-opacity="0.22" stroke-width="1">
    <line x1="200" y1="800" x2="260" y2="850"/><line x1="820" y1="1150" x2="760" y2="1100"/>
  </g>
  <g fill="#D9C089" fill-opacity="0.45">
    <circle cx="200" cy="800" r="3"/><circle cx="260" cy="850" r="2.5"/><circle cx="820" cy="1150" r="3"/><circle cx="760" cy="1100" r="2.5"/>
  </g>
  <rect x="271" y="897" width="538" height="148" fill="none" stroke="#6B6385" stroke-opacity="0.5" stroke-dasharray="6 6"/>
  <text x="277" y="889" fill="#6B6385" font-family="'Trebuchet MS',sans-serif" font-size="12">title-safe area · 1546 × 423</text>
  <g fill="#D9C089">
    <circle cx="540" cy="922" r="17"/>
    <path d="M 532 934 L 548 934 L 553 962 L 527 962 Z"/>
  </g>
  <circle cx="540" cy="922" r="6.5" fill="#140F26"/>
  <text x="540" y="1006" text-anchor="middle" fill="#EDE9F2" font-size="32" letter-spacing="5">CURATED CURIOSITIES</text>
  <text x="540" y="1034" text-anchor="middle" fill="#D9C089" font-family="'Trebuchet MS',sans-serif" font-size="15" letter-spacing="5">A SENSE OF WONDER</text>

  <!-- bottom row -->
  <line x1="90" y1="1268" x2="990" y2="1268" stroke="#2C2447" stroke-width="1.5"/>

  <!-- watermark -->
  <text x="90" y="1318" fill="#EDE9F2" font-size="24">Watermark</text>
  <text x="90" y="1342" fill="#6B6385" font-family="'Trebuchet MS',sans-serif" font-size="13">150 × 150 · video corner</text>
  <rect x="90" y="1360" width="300" height="169" rx="8" fill="#221A3D"/>
  <path d="M 228 1428 l 28 16 l -28 16 Z" fill="#EDE9F2" fill-opacity="0.14"/>
  <g fill="#D9C089">
    <circle cx="356" cy="1488" r="11"/>
    <path d="M 350 1496 L 362 1496 L 366 1514 L 346 1514 Z"/>
  </g>
  <circle cx="356" cy="1488" r="4" fill="#221A3D"/>
  <g fill="#D9C089" transform="translate(452,1430)">
    <circle cx="0" cy="-12" r="20"/>
    <path d="M -11 4 L 11 4 L 18 44 L -18 44 Z"/>
  </g>
  <circle cx="452" cy="1418" r="8" fill="#1B1530"/>

  <!-- palette -->
  <text x="620" y="1318" fill="#EDE9F2" font-size="24">Palette</text>
  <g font-family="'Trebuchet MS',sans-serif" font-size="12" fill="#6B6385">
    <rect x="620" y="1338" width="80" height="80" rx="8" fill="#1B1530" stroke="#2C2447"/><text x="620" y="1436">#1B1530</text>
    <rect x="712" y="1338" width="80" height="80" rx="8" fill="#D9C089"/><text x="712" y="1436">#D9C089</text>
    <rect x="804" y="1338" width="80" height="80" rx="8" fill="#8A7BB8"/><text x="804" y="1436">#8A7BB8</text>
    <rect x="896" y="1338" width="80" height="80" rx="8" fill="#EDE9F2"/><text x="896" y="1436">#EDE9F2</text>
  </g>
  <text x="620" y="1486" fill="#EDE9F2" font-size="24">Type</text>
  <text x="620" y="1514" fill="#6B6385" font-family="'Trebuchet MS',sans-serif" font-size="14">High-contrast serif + spaced caps</text>
  <text x="620" y="1562" fill="#EDE9F2" font-size="44">Aa</text>
  <text x="690" y="1562" fill="#D9C089" font-family="'Trebuchet MS',sans-serif" font-size="28" letter-spacing="4">CC</text>
</svg>
