<svg xmlns="http://www.w3.org/2000/svg" viewBox="0 0 1080 1620" width="1080" height="1620" font-family="'Futura','Century Gothic','Gill Sans','Trebuchet MS',sans-serif">
  <defs>
    <radialGradient id="glowB" cx="50%" cy="50%" r="50%">
      <stop offset="0%" stop-color="#19E3C2" stop-opacity="0.20"/>
      <stop offset="100%" stop-color="#19E3C2" stop-opacity="0"/>
    </radialGradient>
  </defs>

  <rect width="1080" height="1620" fill="#15171A"/>
  <!-- atmosphere: scattered faint sparks -->
  <g fill="#19E3C2" fill-opacity="0.07">
    <circle cx="930" cy="150" r="6"/><circle cx="980" cy="240" r="3"/><circle cx="880" cy="250" r="4"/>
    <circle cx="150" cy="1180" r="4"/><circle cx="110" cy="1240" r="6"/>
  </g>

  <!-- header -->
  <text x="90" y="115" fill="#19E3C2" font-size="22" letter-spacing="8" font-weight="bold">OPTION B</text>
  <text x="86" y="200" fill="#F2F4F3" font-size="74" font-weight="bold" letter-spacing="-1">SPARK</text>
  <text x="90" y="246" fill="#7A8079" font-size="25">The moment curiosity ignites.</text>
  <line x1="90" y1="284" x2="990" y2="284" stroke="#262A2E" stroke-width="1.5"/>

  <!-- logo lockup -->
  <circle cx="540" cy="420" r="150" fill="url(#glowB)"/>
  <!-- main sparkle -->
  <path d="M 540 352 C 540 404, 552 408, 604 420 C 552 432, 540 436, 540 488 C 540 436, 528 432, 476 420 C 528 408, 540 404, 540 352 Z" fill="#19E3C2"/>
  <!-- secondary sparkle -->
  <path d="M 612 360 C 612 384, 618 386, 642 390 C 618 394, 612 396, 612 420 C 612 396, 606 394, 582 390 C 606 386, 612 384, 612 360 Z" fill="#19E3C2" fill-opacity="0.7"/>
  <text x="540" y="566" text-anchor="middle" fill="#F2F4F3" font-size="50" font-weight="bold" letter-spacing="2">CURATED</text>
  <text x="540" y="614" text-anchor="middle" fill="#19E3C2" font-size="38" font-weight="bold" letter-spacing="6">CURIOSITIES</text>

  <!-- banner -->
  <text x="90" y="700" fill="#7A8079" font-size="18" letter-spacing="3">YOUTUBE BANNER · 2560 × 1440</text>
  <rect x="90" y="718" width="900" height="506" rx="14" fill="#0E0F11" stroke="#262A2E"/>
  <g fill="#19E3C2" fill-opacity="0.06">
    <circle cx="200" cy="800" r="5"/><circle cx="860" cy="1140" r="6"/><circle cx="820" cy="820" r="4"/>
  </g>
  <rect x="271" y="897" width="538" height="148" fill="none" stroke="#7A8079" stroke-opacity="0.5" stroke-dasharray="6 6"/>
  <text x="277" y="889" fill="#7A8079" font-size="12">title-safe area · 1546 × 423</text>
  <path d="M 540 905 C 540 935, 547 938, 577 943 C 547 948, 540 951, 540 981 C 540 951, 533 948, 503 943 C 533 938, 540 935, 540 905 Z" fill="#19E3C2"/>
  <text x="540" y="1014" text-anchor="middle" fill="#F2F4F3" font-size="32" font-weight="bold" letter-spacing="3">CURATED CURIOSITIES</text>
  <text x="540" y="1040" text-anchor="middle" fill="#19E3C2" font-size="15" letter-spacing="4">STAY CURIOUS</text>

  <!-- bottom row -->
  <line x1="90" y1="1268" x2="990" y2="1268" stroke="#262A2E" stroke-width="1.5"/>

  <!-- watermark -->
  <text x="90" y="1318" fill="#F2F4F3" font-size="24" font-weight="bold">WATERMARK</text>
  <text x="90" y="1342" fill="#7A8079" font-size="13">150 × 150 · video corner</text>
  <rect x="90" y="1360" width="300" height="169" rx="8" fill="#1E2226"/>
  <path d="M 228 1428 l 28 16 l -28 16 Z" fill="#F2F4F3" fill-opacity="0.14"/>
  <path d="M 356 1481 C 356 1492, 359 1493, 370 1495 C 359 1497, 356 1498, 356 1509 C 356 1498, 353 1497, 342 1495 C 353 1493, 356 1492, 356 1481 Z" fill="#19E3C2"/>
  <path d="M 452 1404 C 452 1424, 458 1426, 478 1430 C 458 1434, 452 1436, 452 1456 C 452 1436, 446 1434, 426 1430 C 446 1426, 452 1424, 452 1404 Z" fill="#19E3C2"/>

  <!-- palette -->
  <text x="620" y="1318" fill="#F2F4F3" font-size="24" font-weight="bold">PALETTE</text>
  <g font-size="12" fill="#7A8079">
    <rect x="620" y="1338" width="80" height="80" rx="8" fill="#15171A" stroke="#262A2E"/><text x="620" y="1436">#15171A</text>
    <rect x="712" y="1338" width="80" height="80" rx="8" fill="#19E3C2"/><text x="712" y="1436">#19E3C2</text>
    <rect x="804" y="1338" width="80" height="80" rx="8" fill="#FF6B4A"/><text x="804" y="1436">#FF6B4A</text>
    <rect x="896" y="1338" width="80" height="80" rx="8" fill="#F2F4F3"/><text x="896" y="1436">#F2F4F3</text>
  </g>
  <text x="620" y="1486" fill="#F2F4F3" font-size="24" font-weight="bold">TYPE</text>
  <text x="620" y="1514" fill="#7A8079" font-size="14">Bold geometric sans</text>
  <text x="620" y="1562" fill="#F2F4F3" font-size="44" font-weight="bold">Aa</text>
  <text x="690" y="1562" fill="#19E3C2" font-size="38" font-weight="bold" letter-spacing="2">CC</text>
</svg>
